<?xml version="1.0" encoding="UTF-8"?>
<svg width="700pt" height="700pt" version="1.1" viewBox="0 0 700 700" xmlns="http://www.w3.org/2000/svg">
 <path d="m317.39 80.5c2.7812-6.375 9.082-10.5 16.039-10.5 20.324 0 39.621 8.1719 53.773 22.027l0.13672 0.13281h-0.003906c14.934 14.934 20.992 34.699 20.992 53.906v60.898h94.5c8.082 0 16.066 1.6055 23.512 4.9375 8.1094 3.3906 14.758 8.9453 19.672 14.473 5.2422 5.9023 9.4805 13.094 11.691 21.328 2.2852 7.6797 2.9688 16.094 1.6016 24.375-0.007813 0.023437-0.011719 0.042969-0.011719 0.066406l-27.035 169.67c-2.0273 13.375-8.7305 25.527-19.117 34.336-10.391 9.2383-23.926 13.895-37.344 13.617h-216.27c-0.93359 0.15625-1.8906 0.23438-2.8633 0.23438h-59.969c-14.996 0-29.348-6.0977-39.941-16.363l-0.19922-0.19531c-10.484-10.488-16.559-24.957-16.559-39.906v-130.67c0-14.902 6.0352-29.332 16.461-39.809 10.762-11.051 25.402-16.66 40.238-16.66h48.305zm-43.227 186.59v187.68h201.83l0.4375 0.003906c5.0703 0.12891 10-1.6758 13.523-4.8438 0.15234-0.13672 0.30469-0.26953 0.46094-0.39844 3.9219-3.293 6.4648-7.832 7.2383-12.992l0.023438-0.15625 27.066-169.87 0.019531-0.12109c0.46484-2.7773 0.25-5.8828-0.64453-8.8281-0.066406-0.22656-0.13281-0.44922-0.19141-0.67969-0.61328-2.3516-1.9336-4.8398-4.082-7.2539-2.4883-2.8047-5.0664-4.6406-7.0781-5.4648-0.20703-0.085937-0.41016-0.17578-0.61719-0.26562-2.7305-1.2422-5.8477-1.9336-9.3242-1.9336h-112c-9.6641 0-17.5-7.832-17.5-17.5v-78.398c0-12.02-3.7148-22.094-10.672-29.094-5.1523-5.0156-11.52-8.6445-18.406-10.52zm-35 187.91v-173.6h-42.469c-6.1172 0-11.5 2.293-15.195 6.1094l-0.19531 0.20313v-0.003907c-3.9805 3.9805-6.3086 9.5742-6.3086 15.16v130.67c0 5.5391 2.2891 11.086 6.2109 15.059 4.3242 4.1406 9.9961 6.4062 15.488 6.4062z" fill-rule="evenodd"/>
</svg>
