<?xml version="1.0" encoding="UTF-8"?>
<svg width="700pt" height="700pt" version="1.1" viewBox="0 0 700 700" xmlns="http://www.w3.org/2000/svg">
 <path d="m140 490c-6.1875 0-12.125-2.457-16.5-6.8359-4.375-4.375-6.832-10.309-6.832-16.496v-186.67c0-6.1875 2.457-12.125 6.832-16.5s10.312-6.832 16.5-6.832h70v233.33zm395.48-256.67h-134.66v-116.66c0-46.668-71.773-46.668-71.773-46.668s0 93.332-23.941 116.67c-12.973 12.668-32.828 54.785-48.438 70v233.33h248.36c11.082 0.10547 21.852-3.6641 30.445-10.664 8.5938-6.9961 14.473-16.777 16.617-27.648l30.332-163.33v-0.003907c2.3828-13.773-1.4883-27.891-10.562-38.523s-22.406-16.68-36.383-16.496z"/>
</svg>
